<svg width="25" height="18" viewBox="0 0 25 18" fill="none" xmlns="http://www.w3.org/2000/svg">
<g clip-path="url(#clip0_23_27819)">
<path d="M25 0H0V16H25V0Z" fill="white"/>
<path d="M25 3.69H0V4.92H25V3.69Z" fill="white"/>
<path d="M25 4H0V6H25V4Z" fill="#CB001C"/>
<path d="M25 0H0V2H25V0Z" fill="#CB001C"/>
<path d="M12.53 0H0V8H12.53V0Z" fill="#2A3560"/>
<path d="M1.97998 1L2.20998 1.72H2.97998L2.35998 2.18L2.58998 2.9L1.97998 2.46L1.35998 2.9L1.58998 2.18L0.97998 1.72H1.74998L1.97998 1Z" fill="white"/>
<path d="M5.97998 1L6.20998 1.72H6.97998L6.35998 2.18L6.58998 2.9L5.97998 2.46L5.35998 2.9L5.58998 2.18L4.97998 1.72H5.74998L5.97998 1Z" fill="white"/>
<path d="M9.97998 1L10.21 1.72H10.98L10.36 2.18L10.59 2.9L9.97998 2.46L9.35998 2.9L9.58998 2.18L8.97998 1.72H9.74998L9.97998 1Z" fill="white"/>
<path d="M3.97998 3L4.20998 3.72H4.97998L4.35998 4.18L4.58998 4.9L3.97998 4.46L3.35998 4.9L3.58998 4.18L2.97998 3.72H3.74998L3.97998 3Z" fill="white"/>
<path d="M7.97998 3L8.20998 3.72H8.97998L8.35998 4.18L8.58998 4.9L7.97998 4.46L7.35998 4.9L7.58998 4.18L6.97998 3.72H7.74998L7.97998 3Z" fill="white"/>
<path d="M1.97998 5L2.20998 5.72H2.97998L2.35998 6.18L2.58998 6.9L1.97998 6.46L1.35998 6.9L1.58998 6.18L0.97998 5.72H1.74998L1.97998 5Z" fill="white"/>
<path d="M5.97998 5L6.20998 5.72H6.97998L6.35998 6.18L6.58998 6.9L5.97998 6.46L5.35998 6.9L5.58998 6.18L4.97998 5.72H5.74998L5.97998 5Z" fill="white"/>
<path d="M9.97998 5L10.21 5.72H10.98L10.36 6.18L10.59 6.9L9.97998 6.46L9.35998 6.9L9.58998 6.18L8.97998 5.72H9.74998L9.97998 5Z" fill="white"/>
<path d="M25 8H0V10H25V8Z" fill="#CB001C"/>
<path d="M25 12H0V14H25V12Z" fill="#CB001C"/>
<path d="M25 16H0V18H25V16Z" fill="#CB001C"/>
</g>
<defs>
<clipPath id="clip0_23_27819">
<rect width="25" height="18" fill="white"/>
</clipPath>
</defs>
</svg>
