<svg width="136" height="16" viewBox="0 0 136 16" fill="none" xmlns="http://www.w3.org/2000/svg">
<g clip-path="url(#clip0_23_6512)">
<g clip-path="url(#clip1_23_6512)">
<path d="M24.3873 9.51628H23.2221V14.2171H21.3545V1.25586H24.7065C27.1807 1.25586 28.5933 2.74034 28.5933 5.31025C28.5933 7.32946 27.7394 8.71817 26.2549 9.2529L29.0722 14.2171H26.9971L24.3873 9.51628ZM23.2221 7.7365H24.6666C25.9835 7.7365 26.6619 6.88252 26.6619 5.34217C26.6619 3.80182 25.9835 3.02766 24.6826 3.02766H23.2221V7.7365Z" fill="#2B2B2B"/>
<path d="M37.1652 11.1923C37.1484 12.0531 36.7913 12.8723 36.1721 13.4706C35.5529 14.0688 34.7219 14.3975 33.861 14.3847H33.6136C31.5704 14.3847 30.2935 13.0519 30.2935 10.7214V7.84819C30.2935 5.53368 31.5704 4.2168 33.6295 4.2168C35.6887 4.2168 37.0375 5.53368 37.0375 7.84819V10.0111H32.0892V10.7533C32.0892 12.0861 32.6638 12.6927 33.6854 12.6927C33.8977 12.7101 34.1113 12.6848 34.3136 12.6184C34.516 12.5519 34.703 12.4457 34.8636 12.3058C35.0243 12.166 35.1553 11.9955 35.249 11.8042C35.3428 11.613 35.3973 11.4049 35.4093 11.1923H37.1652ZM32.0892 7.82425V8.66226H35.2816V7.82425C35.2816 6.4914 34.691 5.9008 33.6854 5.9008C32.6798 5.9008 32.0892 6.4914 32.0892 7.82425Z" fill="#2B2B2B"/>
<path d="M38.466 11.193H40.2378C40.2183 11.5961 40.3593 11.9905 40.6301 12.2897C40.9009 12.589 41.2793 12.7686 41.6824 12.7892H41.9218C42.8636 12.7892 43.4063 12.3263 43.4063 11.5681C43.4063 9.60479 38.6176 10.2752 38.6176 6.93911C38.6176 5.27106 39.8547 4.21756 41.7622 4.21756C42.5482 4.16457 43.3235 4.42276 43.9207 4.93642C44.518 5.45007 44.8894 6.17799 44.9546 6.96305C44.9625 7.0853 44.9625 7.20793 44.9546 7.33018H43.1988C43.2368 6.97459 43.132 6.61845 42.9075 6.34008C42.683 6.0617 42.3572 5.88388 42.0016 5.8457H41.7063C40.9082 5.8457 40.4054 6.27668 40.4054 6.95507C40.4054 8.80668 45.194 8.08838 45.194 11.5841C45.194 13.308 43.9729 14.4573 41.9537 14.4573C41.1114 14.535 40.2727 14.2752 39.6217 13.735C38.9708 13.1948 38.5609 12.4183 38.482 11.5761C38.4687 11.4489 38.4633 11.3209 38.466 11.193Z" fill="#2B2B2B"/>
<path d="M51.2198 12.6376V14.3296H50.5334C48.586 14.3296 47.4447 13.0846 47.4447 11.0654V6.08517H46.072V4.48896H47.4447V2.14252H49.1846V4.45703H51.0043V6.05325H49.1846V11.0574C49.1846 12.1109 49.6315 12.6057 50.5972 12.6057L51.2198 12.6376Z" fill="#2B2B2B"/>
<path d="M59.1609 7.73722V14.2179H57.7004L57.5647 13.308C57.3411 13.6765 57.0221 13.9779 56.6414 14.1801C56.2607 14.3824 55.8324 14.4782 55.4019 14.4573C54.6526 14.51 53.9131 14.2629 53.3459 13.7706C52.7787 13.2782 52.4302 12.5807 52.377 11.8315C52.369 11.7013 52.369 11.5707 52.377 11.4404C52.377 9.43719 53.7657 8.42359 55.9126 8.42359H57.3413V7.73722C57.3413 6.58795 56.9183 5.94148 55.9366 5.94148C55.5757 5.91511 55.2191 6.03313 54.9452 6.2696C54.6714 6.50607 54.5026 6.84162 54.476 7.20249H52.6803C52.6803 6.39814 52.9998 5.62673 53.5686 5.05797C54.1374 4.48921 54.9088 4.16968 55.7131 4.16968H55.9925C58.0835 4.21756 59.1609 5.49454 59.1609 7.73722ZM57.3652 9.97192H55.9366C54.8512 9.97192 54.2207 10.4747 54.2207 11.4404C54.211 11.6204 54.237 11.8004 54.2973 11.9702C54.3576 12.14 54.4509 12.2962 54.5718 12.4298C54.6928 12.5633 54.839 12.6716 55.002 12.7484C55.165 12.8251 55.3416 12.8689 55.5216 12.877C55.6196 12.8891 55.7188 12.8891 55.8169 12.877C56.207 12.908 56.5936 12.7837 56.8925 12.5311C57.1915 12.2785 57.3785 11.9181 57.4131 11.5282V11.3207L57.3652 9.97192Z" fill="#2B2B2B"/>
<path d="M67.996 4.45703V14.2179H66.743L66.5514 13.1245C66.3104 13.5426 65.9603 13.8874 65.5387 14.1221C65.117 14.3569 64.6395 14.4727 64.1571 14.4573C62.4651 14.4573 61.4116 13.2522 61.4116 10.5865V4.45703H63.2074V10.4907C63.2074 12.0869 63.6383 12.7494 64.5801 12.7494C65.5219 12.7494 66.2482 11.9513 66.2482 10.4907V4.45703H67.996Z" fill="#2B2B2B"/>
<path d="M75.2907 4.3852V6.16498C74.9089 6.00748 74.4985 5.93137 74.0856 5.94151C72.8645 5.94151 72.0903 6.73962 72.0903 8.20016V14.2179H70.2946V4.45703H71.5715L71.7711 5.6063C72.0216 5.17213 72.3879 4.8161 72.829 4.57794C73.2701 4.33977 73.7687 4.22883 74.2691 4.2575C74.6147 4.23584 74.9612 4.27916 75.2907 4.3852Z" fill="#2B2B2B"/>
<path d="M82.9206 7.73723V14.2179H81.4521L81.3244 13.308C81.1007 13.6766 80.7817 13.9779 80.401 14.1802C80.0204 14.3824 79.5921 14.4782 79.1615 14.4573C78.7899 14.48 78.4175 14.4292 78.0656 14.3079C77.7136 14.1866 77.389 13.9972 77.1103 13.7503C76.8316 13.5035 76.6043 13.2042 76.4414 12.8695C76.2784 12.5348 76.183 12.1712 76.1606 11.7996C76.1527 11.68 76.1527 11.56 76.1606 11.4405C76.1606 9.4372 77.5494 8.42361 79.6963 8.42361H81.1089V7.73723C81.1089 6.58796 80.6779 5.94149 79.6963 5.94149C79.5174 5.92736 79.3374 5.94886 79.1669 6.00475C78.9963 6.06064 78.8386 6.14981 78.7027 6.26709C78.5669 6.38437 78.4557 6.52744 78.3755 6.688C78.2953 6.84857 78.2478 7.02344 78.2357 7.2025H76.44C76.4431 6.80323 76.5252 6.40853 76.6816 6.04116C76.838 5.67379 77.0656 5.34102 77.3513 5.06204C77.6369 4.78307 77.975 4.5634 78.346 4.41573C78.7169 4.26805 79.1135 4.19528 79.5127 4.20161H79.7761C81.8432 4.21758 82.9206 5.49455 82.9206 7.73723ZM81.1089 9.97194H79.6963C78.6029 9.97194 77.9723 10.4747 77.9723 11.4405C77.9627 11.6204 77.9887 11.8004 78.049 11.9702C78.1093 12.14 78.2026 12.2962 78.3235 12.4298C78.4445 12.5633 78.5907 12.6716 78.7537 12.7484C78.9167 12.8251 79.0933 12.8689 79.2733 12.877C79.3713 12.8892 79.4705 12.8892 79.5686 12.877C79.9608 12.9057 80.3484 12.7785 80.6473 12.5229C80.9462 12.2674 81.1322 11.9042 81.1648 11.5123V11.3207L81.1089 9.97194Z" fill="#2B2B2B"/>
<path d="M91.8435 8.08898V14.2184H90.0478V8.18475C90.0478 6.58853 89.6168 5.9261 88.675 5.9261C87.7333 5.9261 87.007 6.72421 87.007 8.18475V14.2184H85.2192V4.45758H86.4882L86.6957 5.55099C86.9368 5.1329 87.2868 4.78809 87.7085 4.55335C88.1302 4.31862 88.6077 4.20276 89.0901 4.21815C90.79 4.21815 91.8435 5.4233 91.8435 8.08898Z" fill="#2B2B2B"/>
<path d="M98.3561 12.6376V14.3296H97.6777C95.7303 14.3296 94.581 13.0846 94.581 11.0654V6.08517H93.2162V4.48896H94.581V2.14252H96.3608V4.45703H98.1725V6.05325H96.3608V11.0574C96.3608 12.1109 96.8077 12.6057 97.7655 12.6057L98.3561 12.6376Z" fill="#2B2B2B"/>
<path d="M104.03 10.3956V5.0882C104.03 2.46242 105.467 1.09766 107.821 1.09766C110.176 1.09766 111.501 2.41453 111.596 5.00041H109.745C109.673 3.49996 109.002 2.85349 107.821 2.85349C106.64 2.85349 105.93 3.53189 105.93 5.11214V10.3956C105.93 11.9918 106.672 12.6543 107.877 12.6543C109.082 12.6543 109.841 11.9918 109.841 10.4914V8.7994H107.789V7.20318H111.676V10.4994C111.676 13.0374 110.176 14.4899 107.845 14.4899C105.515 14.4899 104.03 12.9974 104.03 10.3956Z" fill="#2B2B2B"/>
<path d="M120.216 4.45703V14.2179H118.939L118.756 13.1245C118.512 13.5403 118.161 13.8832 117.74 14.1176C117.319 14.352 116.843 14.4693 116.361 14.4573C114.677 14.4573 113.624 13.2522 113.624 10.5865V4.45703H115.428V10.4907C115.428 12.0869 115.851 12.7494 116.8 12.7494C117.75 12.7494 118.46 11.9513 118.46 10.4907V4.45703H120.216Z" fill="#2B2B2B"/>
<path d="M127.519 4.3859V6.16568C127.14 6.00814 126.732 5.932 126.321 5.94221C125.1 5.94221 124.318 6.74032 124.318 8.20086V14.2186H122.522V4.45773H123.799L124.007 5.607C124.387 5.05751 124.933 4.64408 125.565 4.42722C126.197 4.21037 126.881 4.20148 127.519 4.40186V4.3859Z" fill="#2B2B2B"/>
<path d="M135.5 4.45703V14.2179H134.223L134.039 13.1245C133.796 13.5403 133.445 13.8832 133.024 14.1176C132.603 14.352 132.127 14.4693 131.645 14.4573C129.961 14.4573 128.908 13.2522 128.908 10.5865V4.45703H130.703V10.4907C130.703 12.0869 131.126 12.7494 132.076 12.7494C133.026 12.7494 133.736 11.9513 133.736 10.4907V4.45703H135.5Z" fill="#2B2B2B"/>
<path d="M8.22572 2.9007V1.44814L8.48111 1.85518C8.89613 2.46174 9.31913 3.06032 9.74212 3.66689L9.90175 3.90632C9.948 3.96925 10.0148 4.01406 10.0906 4.03301C10.1663 4.05195 10.2463 4.04384 10.3168 4.01007L12.0965 3.38755L14.0679 2.71714C14.2513 2.63517 14.4496 2.5917 14.6505 2.58944C14.8166 2.58943 14.9805 2.62843 15.1288 2.70328C15.2771 2.77814 15.4058 2.88676 15.5045 3.02042C15.674 3.23073 15.7669 3.49251 15.7678 3.76266C15.7689 4.08149 15.6556 4.39013 15.4486 4.6326C15.2331 4.90395 15.0256 5.19127 14.8181 5.43071C14.6106 5.67014 14.3312 6.08515 14.0679 6.4044L13.1181 7.70531C13.0792 7.74519 13.0469 7.79099 13.0223 7.84099C12.9874 7.90916 12.9763 7.98704 12.9908 8.06224C13.0053 8.13745 13.0445 8.20565 13.1022 8.25601L13.5092 8.79872L14.2035 9.6926C14.4031 9.94002 14.5946 10.1954 14.7862 10.4428L15.4087 11.2409C15.5576 11.4126 15.6739 11.6101 15.7519 11.8236C15.7442 11.9166 15.7607 12.0101 15.7998 12.0949V12.1747C15.7914 12.3843 15.7281 12.5879 15.6162 12.7653C15.4955 12.9801 15.3072 13.149 15.0806 13.2457C14.854 13.3425 14.6018 13.3615 14.3632 13.3001C14.02 13.2123 13.7007 13.0766 13.3735 12.9648L11.2905 12.2386L10.4923 11.9512C10.4116 11.9098 10.3195 11.8959 10.2301 11.9117C10.1408 11.9276 10.059 11.9723 9.99752 12.039C9.90885 12.1395 9.83126 12.2492 9.76607 12.3663C9.51067 12.7334 9.2473 13.1005 8.96796 13.4677L7.74685 15.2873C7.64323 15.4947 7.48963 15.673 7.29991 15.8061C7.17057 15.884 7.03084 15.9431 6.8849 15.9817H6.46988C6.33578 15.9454 6.20699 15.8917 6.08679 15.8221C5.95455 15.739 5.84091 15.6294 5.75301 15.5003C5.66511 15.3712 5.60485 15.2253 5.576 15.0719C5.55092 14.9537 5.53755 14.8334 5.53609 14.7127V6.4443C5.52325 6.05531 5.60544 5.66904 5.77553 5.31897C5.91797 5.01113 6.17179 4.76872 6.48584 4.64058C6.55711 4.6054 6.61978 4.555 6.66943 4.49295C6.71908 4.43089 6.75449 4.35868 6.77316 4.28143C6.83855 4.11302 6.87628 3.93514 6.8849 3.75468V0.434548C6.87677 0.351005 6.89367 0.266932 6.93347 0.193028C6.97326 0.119124 7.03414 0.0587295 7.10837 0.0195312L7.36376 0.0195313C7.46752 0.0753988 7.57127 0.115304 7.60319 0.250983V3.76266C7.61077 4.16363 7.4997 4.55791 7.28395 4.89597C7.16111 5.08182 6.99008 5.23079 6.78912 5.32695C6.66408 5.39558 6.55521 5.49022 6.46985 5.60449C6.38449 5.71876 6.32463 5.85001 6.2943 5.98938C6.2517 6.15887 6.23289 6.33347 6.23843 6.50815V14.7287C6.24042 14.7888 6.25453 14.8479 6.27991 14.9024C6.30529 14.957 6.34142 15.0058 6.38614 15.0461C6.43085 15.0863 6.48323 15.1171 6.54013 15.1366C6.59704 15.1561 6.65729 15.164 6.71729 15.1596H6.82105C6.93176 15.1046 7.02145 15.015 7.07644 14.9042C7.15625 14.7925 7.22808 14.6728 7.29991 14.5611L7.73089 13.9465L9.08768 11.9512C9.23199 11.6862 9.43714 11.4592 9.68626 11.2888C9.93913 11.1413 10.2378 11.093 10.5243 11.1531C10.857 11.2481 11.1846 11.3599 11.5059 11.4883L13.4693 12.1667L14.5547 12.5418C14.6156 12.562 14.6813 12.5629 14.7427 12.5443C14.8042 12.5258 14.8584 12.4887 14.8979 12.4381C14.943 12.3897 14.9748 12.3304 14.9902 12.2661C15.0055 12.2018 15.004 12.1345 14.9857 12.071C14.9224 11.928 14.8331 11.7981 14.7223 11.6879C14.3312 11.1691 13.9242 10.6583 13.5331 10.1395C13.1421 9.62077 12.9186 9.34143 12.5914 8.91844C12.455 8.77343 12.3515 8.60063 12.2882 8.41191C12.2248 8.22318 12.203 8.02297 12.2242 7.82503C12.241 7.66296 12.2957 7.50711 12.3839 7.37011C12.5914 7.06683 12.8228 6.77951 13.0463 6.48421C13.2698 6.18891 13.6529 5.6861 13.9561 5.27108L14.9059 4.01007C14.9313 3.98213 14.9507 3.94934 14.963 3.91367C14.9754 3.87801 14.9804 3.84021 14.9777 3.80256C14.9778 3.69944 14.938 3.60028 14.8665 3.52589C14.7951 3.45149 14.6977 3.40763 14.5946 3.40351C14.5498 3.39526 14.5038 3.39526 14.4589 3.40351L13.3416 3.80256C12.5435 4.09786 11.6735 4.38518 10.8435 4.68846C10.5704 4.80892 10.269 4.85039 9.97358 4.80818C9.70394 4.7783 9.45573 4.64707 9.27922 4.44105C8.96796 4.01805 8.68064 3.57909 8.37736 3.14812C8.33935 3.05859 8.28824 2.97521 8.22572 2.9007Z" fill="#2B2B2B"/>
<path d="M3.27741 0.0195312C3.35163 0.0587295 3.41252 0.119124 3.45231 0.193028C3.4921 0.266932 3.50901 0.351005 3.50088 0.434548V3.70679C3.4961 3.94609 3.5452 4.18339 3.64454 4.40114C3.70761 4.53512 3.8187 4.64051 3.9558 4.69645C4.20418 4.81482 4.41231 5.00353 4.55438 5.23916C4.72206 5.50438 4.82588 5.80491 4.85766 6.11708C4.85766 6.2767 4.85766 6.4443 4.85766 6.60392V15.5826C4.85788 15.6697 4.82502 15.7535 4.76576 15.8172C4.70649 15.8809 4.62523 15.9198 4.53842 15.9258C4.4991 15.934 4.45855 15.9342 4.41914 15.9265C4.37972 15.9189 4.34222 15.9034 4.30881 15.8812C4.2754 15.8589 4.24674 15.8302 4.22451 15.7968C4.20227 15.7633 4.1869 15.7258 4.17927 15.6864C4.17142 15.6523 4.17142 15.6168 4.17927 15.5826V6.4044C4.17729 6.12096 4.09421 5.84401 3.93984 5.60629C3.88388 5.49481 3.79828 5.40092 3.69243 5.33493C3.49374 5.24031 3.31887 5.10225 3.18072 4.93095C3.04258 4.75965 2.9447 4.5595 2.89432 4.34528C2.84766 4.16247 2.8209 3.97516 2.81451 3.7866V0.466472C2.8 0.378849 2.81291 0.288883 2.85148 0.20888C2.89006 0.128878 2.9524 0.0627457 3.03 0.0195313L3.27741 0.0195312Z" fill="#2B2B2B"/>
<path d="M3.55675 8.94175V9.79572C3.55675 9.85957 3.55675 9.85957 3.48492 9.84361L2.20795 9.43657C1.90467 9.34878 1.59341 9.27695 1.29811 9.1732C1.09484 9.11367 0.912316 8.99837 0.771248 8.84037C0.63018 8.68237 0.536211 8.48801 0.5 8.27932L0.5 7.77651C0.537025 7.63503 0.596292 7.50033 0.675584 7.37745C0.837727 7.13888 1.08208 6.9684 1.36196 6.89859C1.70514 6.80282 2.04035 6.69108 2.37555 6.58733L3.54877 6.24414V7.04225L2.79855 7.2737L1.60139 7.63285C1.50627 7.65913 1.42497 7.7211 1.37442 7.80585C1.32386 7.8906 1.30797 7.99159 1.33003 8.08777C1.34664 8.15324 1.38062 8.21301 1.42838 8.26078C1.47615 8.30854 1.53592 8.34252 1.60139 8.35913C2.13612 8.51875 2.67085 8.67837 3.19761 8.82203C3.31114 8.87852 3.43203 8.91882 3.55675 8.94175Z" fill="#2B2B2B"/>
<path d="M4.87362 2.10221V3.69843C4.88601 3.80735 4.86065 3.91722 4.80179 4.00969C4.75828 4.06047 4.70223 4.09898 4.63922 4.12138C4.57622 4.14378 4.50844 4.1493 4.44264 4.13739C4.26706 4.08152 4.20321 4.00969 4.17128 3.86603C4.16328 3.78642 4.16328 3.70621 4.17128 3.6266V0.482054C4.16036 0.400349 4.17725 0.317343 4.21923 0.246404C4.26122 0.175464 4.32585 0.120718 4.40274 0.0909811C4.44674 0.0760091 4.49328 0.0699223 4.53966 0.0730736C4.58603 0.076225 4.63132 0.0885519 4.67289 0.109339C4.71447 0.130127 4.7515 0.158961 4.78185 0.194171C4.8122 0.22938 4.83525 0.270264 4.84968 0.314451C4.84968 0.314451 4.84968 0.314451 4.84968 0.362338V1.10458C4.85766 1.35199 4.87362 1.77499 4.87362 2.10221Z" fill="#2B2B2B"/>
<path d="M6.19853 2.11116V3.80315C6.2018 3.84405 6.19695 3.88519 6.18425 3.92421C6.17156 3.96323 6.15128 3.99935 6.12458 4.03051C6.09788 4.06166 6.06528 4.08723 6.02866 4.10573C5.99204 4.12424 5.95213 4.13533 5.91121 4.13836C5.82448 4.15479 5.73476 4.13636 5.66154 4.08705C5.58832 4.03773 5.53751 3.96153 5.52014 3.87498V0.459077C5.50884 0.364945 5.53523 0.270166 5.59354 0.195411C5.65185 0.120656 5.73735 0.0719884 5.8314 0.0600224C5.92244 0.0520558 6.01325 0.0775978 6.08679 0.131852C6.1348 0.158511 6.17442 0.198028 6.20121 0.245963C6.228 0.293898 6.24089 0.348352 6.23843 0.403209L6.19853 2.11116Z" fill="#2B2B2B"/>
<path d="M3.55664 8.94179C3.43873 8.92861 3.32322 8.89907 3.21346 8.854C2.67074 8.71034 2.13601 8.55072 1.61724 8.3911C1.52212 8.36481 1.44082 8.30284 1.39027 8.21809C1.33972 8.13334 1.32382 8.03236 1.34588 7.93618C1.36249 7.8707 1.39647 7.81093 1.44423 7.76317C1.492 7.71541 1.55177 7.68143 1.61724 7.66482L2.8144 7.30567L3.56463 7.07422L3.55664 8.94179Z" fill="#D61516"/>
<path d="M8.22564 2.90039C8.29989 2.97232 8.36189 3.05589 8.4092 3.1478C8.71249 3.57878 8.9998 4.01774 9.31107 4.44074C9.48035 4.6419 9.71472 4.77744 9.9735 4.82383C10.2786 4.87476 10.5919 4.83594 10.8754 4.7121C11.6735 4.40882 12.5434 4.1215 13.3734 3.8262L14.4908 3.42714C14.5882 3.39392 14.6947 3.40043 14.7874 3.44525C14.88 3.49007 14.9512 3.56959 14.9856 3.66657C14.9932 3.71148 14.9932 3.75735 14.9856 3.80225C14.9883 3.8399 14.9833 3.8777 14.9709 3.91336C14.9586 3.94903 14.9392 3.98182 14.9138 4.00976L13.9561 5.25481C13.6528 5.66185 13.3415 6.05292 13.0462 6.46793C12.7509 6.88295 12.5913 7.05055 12.3838 7.35383C12.2956 7.49084 12.2409 7.64669 12.2242 7.80876C12.2029 8.0067 12.2247 8.2069 12.2881 8.39563C12.3515 8.58436 12.4549 8.75715 12.5913 8.90216C12.9185 9.30122 13.2218 9.70027 13.5331 10.1233C13.8443 10.5463 14.3312 11.1528 14.7222 11.6716C14.833 11.7819 14.9223 11.9118 14.9856 12.0547C15.0039 12.1183 15.0055 12.1855 14.9901 12.2498C14.9747 12.3142 14.9429 12.3734 14.8978 12.4218C14.8583 12.4724 14.8041 12.5095 14.7427 12.5281C14.6812 12.5466 14.6156 12.5458 14.5546 12.5256L13.4692 12.1505L11.5059 11.4721C11.1846 11.3437 10.8569 11.2318 10.5242 11.1369C10.2377 11.0767 9.93905 11.125 9.68618 11.2725C9.43706 11.4429 9.23191 11.6699 9.0876 11.935L7.73081 13.9302L7.29983 14.5448H7.19608C6.98857 14.5448 6.9327 14.449 6.87684 14.2814C6.86885 14.1965 6.86885 14.111 6.87684 14.026V6.40409C6.88521 6.23625 6.9316 6.07251 7.01252 5.92522C7.04653 5.87803 7.09373 5.84193 7.14819 5.82147C7.39703 5.67188 7.61069 5.47039 7.77459 5.23074C7.93849 4.99109 8.04878 4.71891 8.09794 4.43276C8.15643 4.2001 8.19119 3.96211 8.2017 3.72244C8.22564 3.4431 8.2017 3.21165 8.22564 2.90039Z" fill="#D61516"/>
</g>
</g>
<defs>
<clipPath id="clip0_23_6512">
<rect width="135" height="16" fill="white" transform="translate(0.5)"/>
</clipPath>
<clipPath id="clip1_23_6512">
<rect width="135" height="15.9622" fill="white" transform="translate(0.5 0.0195312)"/>
</clipPath>
</defs>
</svg>
