<svg width="237" height="43" viewBox="0 0 237 43" fill="none" xmlns="http://www.w3.org/2000/svg">
<g clip-path="url(#clip0_23_13238)">
<g clip-path="url(#clip1_23_13238)">
<g clip-path="url(#clip2_23_13238)">
<path d="M46.804 15.4655H44.7646V23.6691H41.4795V1.06079H47.3208C51.6486 1.06079 54.1033 3.6446 54.1033 8.12936C54.1033 11.6544 52.6176 14.0721 50.0338 15.0134L54.943 23.6691H51.3533L46.804 15.4655ZM44.7646 12.365H47.2838C49.5816 12.365 50.772 10.8793 50.772 8.19395C50.772 5.50864 49.5816 4.16136 47.3208 4.16136H44.7646V12.365Z" fill="#2B2B2B"/>
<path d="M68.8308 18.3343C68.5355 21.9517 66.3116 24.0187 62.6296 24.0187C58.9477 24.0187 56.8438 21.6933 56.8438 17.6238V12.5577C56.8438 8.51586 59.0769 6.23657 62.7035 6.23657C66.33 6.23657 68.6462 8.52509 68.6462 12.5669V16.3873H59.9812V17.6792C59.9812 19.9954 60.9778 21.0473 62.7496 21.0473C64.6506 21.0473 65.4626 20.2076 65.7487 18.362L68.8308 18.3343ZM59.9812 12.5208V13.9788H65.518V12.5208C65.518 10.1953 64.4844 9.16181 62.7496 9.16181C61.0148 9.16181 59.9812 10.1953 59.9812 12.5208Z" fill="#2B2B2B"/>
<path d="M70.8335 18.4358H73.9341C73.9154 18.7813 73.9651 19.1271 74.0803 19.4533C74.1955 19.7796 74.3739 20.0799 74.6054 20.3371C74.8368 20.5942 75.1167 20.8032 75.4291 20.952C75.7414 21.1008 76.0801 21.1865 76.4256 21.2042C76.5729 21.218 76.7212 21.218 76.8685 21.2042C78.5203 21.2042 79.4524 20.4014 79.4524 19.0726C79.4524 15.649 71.0919 16.8117 71.0919 10.9982C71.0919 8.08215 73.2512 6.23657 76.5456 6.23657C80.1629 6.23657 82.0823 8.49741 82.193 11.6626H79.1663C79.2336 11.0422 79.0516 10.4204 78.6605 9.93416C78.2694 9.44788 77.7012 9.13687 77.0808 9.06954C76.9029 9.05107 76.7235 9.05107 76.5456 9.06954C75.0599 9.06954 74.1555 9.80777 74.1555 11.0074C74.1555 14.2372 82.5529 12.9729 82.5529 19.0818C82.5529 22.0809 80.4213 24.0833 76.8962 24.0833C73.0574 24.0833 70.8612 21.5641 70.8335 18.4358Z" fill="#2B2B2B"/>
<path d="M92.8235 20.9178V23.8615H91.6331C88.2372 23.8615 86.2347 21.6929 86.2347 18.1771V9.4844H83.8447V6.64221H86.2347V2.60962H89.3353V6.64221H92.5005V9.4844H89.3353V18.2324C89.3353 20.078 90.1105 20.9454 91.7899 20.9454L92.8235 20.9178Z" fill="#2B2B2B"/>
<path d="M106.425 12.3653V23.6695H103.869L103.648 22.0823C103.255 22.7254 102.697 23.2508 102.031 23.6032C101.365 23.9556 100.617 24.122 99.8642 24.0847C98.5593 24.1631 97.2765 23.7218 96.2961 22.8573C95.3157 21.9927 94.7174 20.7752 94.6319 19.4708C94.6181 19.2649 94.6181 19.0584 94.6319 18.8525C94.6319 15.3644 97.0589 13.5834 100.805 13.5834H103.306V12.3653C103.306 10.3629 102.568 9.22783 100.852 9.22783C100.539 9.20132 100.224 9.23695 99.9247 9.33268C99.6256 9.42841 99.3485 9.58235 99.1092 9.78562C98.8699 9.98889 98.6732 10.2375 98.5303 10.5171C98.3875 10.7967 98.3014 11.1018 98.277 11.4148C98.2725 11.4392 98.2725 11.4643 98.277 11.4887H95.1487C95.3056 8.23121 97.5018 6.22876 100.925 6.22876C104.552 6.23799 106.425 8.45268 106.425 12.3653ZM103.306 16.2687H100.824C98.9137 16.2687 97.8156 17.1454 97.8156 18.8248C97.8156 20.5043 98.8214 21.3071 100.529 21.3071C100.866 21.3336 101.206 21.2932 101.528 21.1883C101.85 21.0834 102.148 20.916 102.405 20.6957C102.662 20.4754 102.873 20.2065 103.026 19.9045C103.179 19.6025 103.271 19.2732 103.297 18.9356C103.306 18.8219 103.306 18.7078 103.297 18.5941L103.306 16.2687Z" fill="#2B2B2B"/>
<path d="M121.568 6.64282V23.6683H119.344L118.994 21.7581C118.572 22.4994 117.952 23.1091 117.205 23.5196C116.457 23.9301 115.61 24.1253 114.758 24.0835C111.824 24.0835 109.978 21.9888 109.978 17.338V6.64282H113.116V17.1719C113.116 19.9402 113.854 21.1122 115.506 21.1122C117.157 21.1122 118.412 19.6911 118.412 17.1719V6.64282H121.568Z" fill="#2B2B2B"/>
<path d="M134.035 6.51304V9.61361C133.362 9.33812 132.639 9.20611 131.913 9.22604C129.781 9.22604 128.425 10.6195 128.425 13.1664V23.6677H125.287V6.64223H127.52L127.871 8.617C128.532 7.6464 129.491 6.9166 130.602 6.53721C131.714 6.15783 132.918 6.14935 134.035 6.51304Z" fill="#2B2B2B"/>
<path d="M147.083 12.3653V23.6695H144.537L144.306 22.0823C143.917 22.7267 143.361 23.2534 142.696 23.6061C142.031 23.9588 141.283 24.1243 140.532 24.0847C139.226 24.1656 137.942 23.7252 136.961 22.8601C135.98 21.995 135.382 20.7761 135.299 19.4708C135.281 19.2589 135.281 19.0459 135.299 18.8341C135.299 15.3459 137.717 13.5649 141.464 13.5649H143.955V12.3653C143.955 10.3629 143.208 9.22783 141.501 9.22783C140.872 9.17413 140.247 9.37241 139.764 9.77907C139.281 10.1857 138.98 10.7675 138.926 11.3964C138.921 11.427 138.921 11.4581 138.926 11.4887H135.788C135.955 8.23121 138.151 6.22876 141.574 6.22876C145.21 6.23799 147.083 8.45268 147.083 12.3653ZM143.955 16.2687H141.464C139.563 16.2687 138.465 17.1454 138.465 18.8248C138.465 20.5043 139.461 21.3071 141.178 21.3071C141.861 21.3554 142.536 21.1312 143.055 20.6833C143.574 20.2355 143.894 19.6005 143.946 18.9171C143.946 18.8064 143.946 18.7049 143.946 18.5941L143.955 16.2687Z" fill="#2B2B2B"/>
<path d="M162.365 12.9738V23.6689H159.237V13.1399C159.237 10.3715 158.489 9.1996 156.847 9.1996C155.066 9.1996 153.94 10.6207 153.94 13.1399V23.6689H150.802V6.64347H153.035L153.358 8.55364C153.783 7.8112 154.406 7.20143 155.157 6.79242C155.908 6.38341 156.758 6.19127 157.612 6.23744C160.519 6.23744 162.365 8.32295 162.365 12.9738Z" fill="#2B2B2B"/>
<path d="M173.503 20.9178V23.8615H172.312C168.916 23.8615 166.914 21.6929 166.914 18.1771V9.4844H164.524V6.64221H166.914V2.60962H170.015V6.64221H173.18V9.4844H170.015V18.2324C170.015 20.078 170.79 20.9454 172.469 20.9454L173.503 20.9178Z" fill="#2B2B2B"/>
<path d="M182.869 16.9507V7.72277C182.869 3.10882 185.388 0.681885 189.495 0.681885C193.601 0.681885 195.954 3.10882 196.084 7.56589H192.817C192.688 4.94517 191.525 3.81937 189.458 3.81937C187.391 3.81937 186.164 5.00977 186.164 7.75968V16.9322C186.164 19.7006 187.455 20.8725 189.55 20.8725C191.645 20.8725 193.011 19.6729 193.011 17.0891V14.2653H189.421V11.3586H196.204V17.1075C196.139 21.5369 193.592 24.0192 189.523 24.0192C185.453 24.0192 182.869 21.5369 182.869 16.9507Z" fill="#2B2B2B"/>
<path d="M210.876 6.64282V23.6683H208.643L208.32 21.7581C207.898 22.4979 207.281 23.1067 206.535 23.5171C205.789 23.9276 204.944 24.1236 204.093 24.0835C201.122 24.0835 199.276 21.9888 199.276 17.3103V6.64282H202.405V17.1719C202.405 19.9402 203.152 21.1122 204.795 21.1122C206.437 21.1122 207.701 19.6911 207.701 17.1719V6.64282H210.876Z" fill="#2B2B2B"/>
<path d="M223.343 6.51326V9.61383C222.677 9.33824 221.96 9.20618 221.239 9.22626C219.107 9.22626 217.751 10.6197 217.751 13.1666V23.6679H214.623V6.64245H216.81L217.169 8.61722C217.608 7.85171 218.252 7.22352 219.028 6.80302C219.803 6.38253 220.681 6.18634 221.562 6.23642C222.168 6.21692 222.772 6.31081 223.343 6.51326Z" fill="#2B2B2B"/>
<path d="M237 6.64282V23.6683H234.776L234.453 21.7581C234.031 22.4994 233.412 23.1091 232.664 23.5196C231.916 23.9301 231.07 24.1253 230.218 24.0835C227.283 24.0835 225.438 21.9888 225.438 17.338V6.64282H228.575V17.1719C228.575 19.9402 229.313 21.1122 230.965 21.1122C232.617 21.1122 233.872 19.6911 233.872 17.1719V6.64282H237Z" fill="#2B2B2B"/>
<path d="M49.4801 29.9163V39.4579H48.6773V30.5991H44.6539L44.4324 34.5302C44.3968 35.5677 44.2639 36.5996 44.0356 37.6123C43.9178 38.1395 43.6484 38.6206 43.2605 38.9965C42.8752 39.3005 42.3944 39.4575 41.904 39.4394H41.5718V38.7658H41.8302C42.0197 38.7705 42.2081 38.7351 42.383 38.6619C42.5579 38.5888 42.7154 38.4795 42.8452 38.3413C43.1194 37.9648 43.2998 37.5282 43.3712 37.0679C43.5313 36.1715 43.6269 35.2649 43.6573 34.3549L43.8972 29.9347L49.4801 29.9163Z" fill="#2B2B2B"/>
<path d="M53.9648 38.3043L56.0227 32.3616H56.8716L53.8541 40.6667L53.6972 41.0358C53.5198 41.5098 53.1672 41.8975 52.7121 42.1191C52.2571 42.3406 51.7343 42.3789 51.2518 42.2262V41.5802L51.6579 41.6264C51.9833 41.6184 52.2974 41.5051 52.553 41.3034C52.8394 41.0561 53.0558 40.7379 53.1805 40.3806L53.5311 39.4578L50.8643 32.4446H51.7225L53.9648 38.3043Z" fill="#2B2B2B"/>
<path d="M63.1097 39.4578H62.3253V36.4588C61.7365 36.6878 61.1115 36.8097 60.4797 36.8186C59.7456 36.8839 59.0147 36.6623 58.4404 36.2004C57.9739 35.6699 57.7351 34.977 57.776 34.2717V32.3616H58.5511V34.2072C58.5056 34.7436 58.6711 35.2766 59.0125 35.6928C59.2166 35.8614 59.4524 35.9875 59.706 36.0636C59.9595 36.1396 60.2258 36.1642 60.489 36.1358C61.1183 36.1197 61.7411 36.0044 62.3346 35.7943V32.3616H63.1189L63.1097 39.4578Z" fill="#2B2B2B"/>
<path d="M66.0349 32.3616V38.7657H69.1631V32.3616H69.9383V38.7657H73.0573V32.3616H73.8417V39.4578H65.2505V32.3616H66.0349Z" fill="#2B2B2B"/>
<path d="M80.4578 32.3616H81.2422V39.4578H80.4578V33.6258L76.6467 39.4578H75.8716V32.3616H76.6467V38.1751L80.4578 32.3616Z" fill="#2B2B2B"/>
<path d="M86.0683 39.5584C85.4962 39.5658 84.9334 39.4123 84.4442 39.1155C83.9556 38.8201 83.5617 38.391 83.3092 37.8789C83.0329 37.3265 82.8936 36.7156 82.9032 36.0979V35.8119C82.8903 35.1742 83.0262 34.5423 83.3 33.9663C83.5395 33.4449 83.9198 33.0006 84.3981 32.6836C84.8522 32.3824 85.385 32.2219 85.9299 32.2222C86.3178 32.2099 86.7033 32.2866 87.0569 32.4466C87.4104 32.6066 87.7225 32.8455 87.9693 33.145C88.508 33.8245 88.7774 34.6787 88.726 35.5443V35.9872H83.6783V36.1349C83.6525 36.8651 83.8992 37.5789 84.3704 38.1373C84.5808 38.3927 84.846 38.5975 85.1463 38.7365C85.4466 38.8754 85.7744 38.945 86.1053 38.9401C86.4865 38.9422 86.8639 38.8636 87.2126 38.7094C87.5751 38.5412 87.8917 38.288 88.1354 37.9712L88.6245 38.3496C88.339 38.7546 87.9536 39.0788 87.5056 39.2906C87.0577 39.5025 86.5625 39.5947 86.0683 39.5584ZM85.9299 32.8959C85.6504 32.8906 85.3731 32.9455 85.1167 33.057C84.8603 33.1685 84.631 33.3338 84.4442 33.5418C84.0197 34.0268 83.7611 34.6345 83.706 35.2767H87.9508V35.1936C87.9513 34.59 87.7463 34.0042 87.3695 33.5326C87.1913 33.3269 86.9699 33.1631 86.721 33.0531C86.4721 32.943 86.202 32.8893 85.9299 32.8959Z" fill="#2B2B2B"/>
<path d="M99.1814 35.969C99.2367 36.8994 98.9802 37.8216 98.4524 38.5897C98.2245 38.8894 97.9276 39.1297 97.5871 39.2903C97.2466 39.4509 96.8724 39.5272 96.4961 39.5125C96.0711 39.5352 95.6468 39.4548 95.2596 39.278C94.8723 39.1013 94.5336 38.8335 94.2722 38.4975V42.0963H93.4971V32.3609H94.2168V33.3575C94.4566 32.9938 94.7868 32.6988 95.1751 32.5014C95.5634 32.304 95.9964 32.2111 96.4315 32.2317C96.8124 32.2126 97.1921 32.2866 97.5378 32.4474C97.8836 32.6082 98.1848 32.8509 98.4155 33.1545C98.9397 33.9413 99.1925 34.8777 99.1353 35.8214L99.1814 35.969ZM98.3971 35.8306C98.4356 35.0772 98.2424 34.33 97.8434 33.6897C97.6692 33.4418 97.4367 33.2405 97.1663 33.1037C96.896 32.9669 96.5961 32.8988 96.2931 32.9054C95.8567 32.8914 95.4268 33.0148 95.0642 33.2582C94.7017 33.5016 94.4246 33.8526 94.2722 34.2619V37.6116C94.4396 37.9938 94.7197 38.3157 95.075 38.5344C95.4493 38.7545 95.8774 38.8663 96.3116 38.8574C96.6149 38.8682 96.9159 38.8008 97.1858 38.6619C97.4556 38.5229 97.6853 38.317 97.8526 38.0638C98.252 37.39 98.4416 36.6126 98.3971 35.8306Z" fill="#2B2B2B"/>
<path d="M103.657 39.5584C103.082 39.5661 102.516 39.4126 102.023 39.1155C101.535 38.8201 101.141 38.391 100.888 37.8789C100.612 37.3265 100.473 36.7156 100.482 36.0979V35.8119C100.475 35.1748 100.611 34.5441 100.879 33.9663C101.128 33.4478 101.51 33.005 101.987 32.6836C102.438 32.3842 102.967 32.2237 103.509 32.2222C103.897 32.2099 104.283 32.2866 104.636 32.4466C104.99 32.6066 105.302 32.8455 105.549 33.145C106.087 33.8245 106.357 34.6787 106.305 35.5443V35.9872H101.267V36.1349C101.238 36.8639 101.482 37.5775 101.95 38.1373C102.16 38.3927 102.425 38.5975 102.726 38.7365C103.026 38.8754 103.354 38.945 103.684 38.9401C104.066 38.9466 104.444 38.8678 104.792 38.7094C105.154 38.5412 105.471 38.288 105.715 37.9712L106.204 38.3496C105.92 38.7545 105.537 39.0788 105.09 39.2908C104.644 39.5027 104.15 39.5949 103.657 39.5584ZM103.509 32.8959C103.23 32.8906 102.952 32.9455 102.696 33.057C102.44 33.1685 102.21 33.3338 102.023 33.5418C101.599 34.0268 101.34 34.6345 101.285 35.2767H105.53V35.1936C105.537 34.589 105.331 34.0012 104.949 33.5326C104.771 33.3269 104.549 33.1631 104.3 33.0531C104.051 32.943 103.781 32.8893 103.509 32.8959Z" fill="#2B2B2B"/>
<path d="M110.439 38.9044C110.938 38.9217 111.427 38.7578 111.814 38.443C111.992 38.2964 112.137 38.1136 112.239 37.9068C112.341 37.6999 112.397 37.4738 112.405 37.2434H113.162C113.145 37.6684 113.004 38.0792 112.756 38.4245C112.504 38.7844 112.164 39.0735 111.768 39.2643C111.352 39.4588 110.899 39.5596 110.439 39.5596C110.026 39.5803 109.614 39.5082 109.232 39.3485C108.85 39.1888 108.509 38.9456 108.234 38.6368C107.663 37.8968 107.375 36.9772 107.422 36.0437V35.7669C107.405 35.1318 107.531 34.5011 107.791 33.9213C108.007 33.4065 108.374 32.969 108.843 32.6663C109.323 32.3726 109.877 32.2221 110.439 32.2326C111.142 32.2062 111.827 32.4545 112.35 32.9247C112.605 33.1598 112.809 33.4451 112.948 33.7627C113.088 34.0803 113.161 34.4233 113.162 34.7703H112.405C112.403 34.5188 112.349 34.2704 112.248 34.0403C112.146 33.8102 111.999 33.6033 111.814 33.4323C111.601 33.2502 111.354 33.112 111.088 33.0255C110.821 32.939 110.54 32.9059 110.261 32.9282C109.981 32.9505 109.709 33.0277 109.459 33.1553C109.21 33.283 108.988 33.4586 108.806 33.6722C108.376 34.2997 108.168 35.0535 108.216 35.813V36.0437C108.178 36.8019 108.399 37.5502 108.843 38.1662C109.033 38.4053 109.276 38.5966 109.554 38.7248C109.831 38.853 110.134 38.9145 110.439 38.9044Z" fill="#2B2B2B"/>
<path d="M119.796 32.9986H117.222V39.4582H116.437V32.9986H113.964V32.3342H119.796V32.9986Z" fill="#2B2B2B"/>
<path d="M120.645 35.7663C120.638 35.1292 120.774 34.4986 121.042 33.9208C121.289 33.4009 121.676 32.96 122.159 32.6473C122.652 32.342 123.222 32.185 123.801 32.1952C124.231 32.1811 124.658 32.2624 125.052 32.4331C125.446 32.6038 125.797 32.8598 126.081 33.1825C126.695 33.9134 127.008 34.8501 126.957 35.8033V35.9694C126.97 36.607 126.834 37.2389 126.561 37.8149C126.323 38.3353 125.938 38.7747 125.453 39.0792C124.957 39.3762 124.389 39.5295 123.811 39.5221C123.38 39.5356 122.952 39.4541 122.556 39.2835C122.161 39.1128 121.808 38.8572 121.522 38.5347C120.898 37.807 120.569 36.8721 120.599 35.914L120.645 35.7663ZM121.43 35.9786C121.401 36.7258 121.632 37.4598 122.085 38.0549C122.268 38.2812 122.495 38.4691 122.751 38.6078C123.007 38.7465 123.288 38.8334 123.578 38.8634C123.867 38.8934 124.16 38.866 124.439 38.7826C124.718 38.6993 124.978 38.5618 125.204 38.3778C125.323 38.282 125.431 38.1737 125.527 38.0549C125.987 37.4389 126.219 36.682 126.182 35.914V35.7663C126.192 35.2547 126.088 34.7473 125.878 34.2807C125.706 33.8583 125.414 33.4957 125.038 33.2379C124.675 32.9878 124.242 32.8586 123.801 32.8688C123.472 32.8604 123.146 32.9306 122.849 33.0734C122.552 33.2162 122.293 33.4276 122.094 33.6901C121.631 34.3052 121.397 35.0619 121.43 35.8309V35.9786Z" fill="#2B2B2B"/>
<path d="M134.257 35.9697C134.312 36.9001 134.055 37.8223 133.528 38.5905C133.299 38.892 133.001 39.1335 132.659 39.2943C132.316 39.455 131.94 39.5302 131.562 39.5133C131.138 39.536 130.715 39.4555 130.33 39.2787C129.944 39.1019 129.607 38.834 129.347 38.4982V42.0971H128.563V32.3616H129.292V33.3582C129.532 32.9946 129.862 32.6995 130.25 32.5021C130.639 32.3047 131.072 32.2118 131.507 32.2324C131.889 32.2109 132.271 32.2839 132.619 32.4448C132.966 32.6057 133.269 32.8497 133.5 33.1552C134.024 33.942 134.277 34.8785 134.22 35.8221L134.257 35.9697ZM133.472 35.8313C133.511 35.0779 133.318 34.3307 132.919 33.6905C132.744 33.4425 132.512 33.2412 132.241 33.1044C131.971 32.9676 131.671 32.8995 131.368 32.9061C130.93 32.8965 130.499 33.0186 130.132 33.2567C129.773 33.5028 129.498 33.8542 129.347 34.2626V37.6123C129.515 37.9945 129.795 38.3164 130.15 38.5351C130.521 38.7563 130.946 38.8683 131.377 38.8581C131.681 38.8689 131.982 38.8016 132.252 38.6626C132.522 38.5236 132.751 38.3177 132.919 38.0645C133.325 37.3933 133.518 36.6146 133.472 35.8313Z" fill="#2B2B2B"/>
<path d="M140.449 39.4575C140.358 39.1358 140.309 38.8041 140.301 38.4701C140.024 38.8289 139.662 39.1141 139.249 39.3006C138.826 39.4915 138.366 39.589 137.902 39.5867C137.298 39.6152 136.707 39.4103 136.25 39.0146C136.047 38.8413 135.885 38.6262 135.773 38.3841C135.662 38.1419 135.604 37.8785 135.604 37.6119C135.593 37.2774 135.673 36.9461 135.835 36.6535C135.998 36.3609 136.237 36.1181 136.527 35.9509C137.245 35.5069 138.083 35.2973 138.926 35.3511H140.338V34.5483C140.347 34.3274 140.311 34.1069 140.232 33.9006C140.152 33.6942 140.031 33.5064 139.876 33.3486C139.494 33.034 139.005 32.8787 138.511 32.9149C138.023 32.8948 137.543 33.0448 137.154 33.3394C136.991 33.4524 136.858 33.6026 136.765 33.7776C136.672 33.9525 136.622 34.1471 136.619 34.3453H135.835C135.843 34.0579 135.918 33.7765 136.054 33.5234C136.19 33.2702 136.384 33.0524 136.619 32.8872C137.172 32.4665 137.853 32.2482 138.548 32.269C139.214 32.2371 139.869 32.4468 140.393 32.8596C140.626 33.0653 140.809 33.3204 140.931 33.6062C141.052 33.8919 141.108 34.2012 141.094 34.5114V37.8519C141.066 38.3721 141.142 38.8927 141.316 39.3837V39.4575H140.449ZM137.994 38.8946C138.488 38.9037 138.974 38.7725 139.397 38.5163C139.803 38.2831 140.126 37.928 140.319 37.5012V35.9232H138.926C138.284 35.8951 137.646 36.0418 137.08 36.3477C136.901 36.4539 136.749 36.6008 136.637 36.7767C136.524 36.9525 136.455 37.1523 136.435 37.3598C136.414 37.5673 136.442 37.7768 136.518 37.9713C136.593 38.1658 136.713 38.3399 136.868 38.4794C137.183 38.7425 137.584 38.8804 137.994 38.8669V38.8946Z" fill="#2B2B2B"/>
<path d="M148.587 39.4578H147.803V36.1911H143.992V39.4578H143.208V32.3616H143.992V35.5267H147.803V32.3616H148.587V39.4578Z" fill="#2B2B2B"/>
<path d="M151.541 34.9269H153.58C154.054 34.9155 154.525 35.0134 154.955 35.213C155.334 35.3765 155.655 35.6496 155.878 35.9974C156.083 36.3532 156.189 36.7583 156.182 37.1693C156.192 37.4785 156.133 37.786 156.01 38.0699C155.887 38.3538 155.704 38.6071 155.472 38.8119C154.939 39.2453 154.265 39.4657 153.58 39.4301H150.812V32.3616H151.596L151.541 34.9269ZM151.541 35.5913V38.7657H153.561C154.042 38.795 154.516 38.6436 154.89 38.3412C155.041 38.1904 155.161 38.0113 155.243 37.8142C155.324 37.6171 155.366 37.4058 155.366 37.1924C155.366 36.979 155.324 36.7677 155.243 36.5706C155.161 36.3734 155.041 36.1943 154.89 36.0435C154.538 35.7372 154.083 35.5756 153.617 35.5913H151.541ZM158.545 39.4578H157.751V32.3616H158.535L158.545 39.4578Z" fill="#2B2B2B"/>
<path d="M167.901 38.3689L170.67 32.3616H171.639V39.4578H170.854V33.6258L168.169 39.4578H167.606L164.838 33.5243V39.4578H164.062V32.3616H165.133L167.901 38.3689Z" fill="#2B2B2B"/>
<path d="M178.403 32.3616H179.187V39.4578H178.403V33.6258L174.592 39.4578H173.808V32.3616H174.592V38.1751L178.403 32.3616Z" fill="#2B2B2B"/>
<path d="M186.967 35.969C187.014 36.8998 186.754 37.8203 186.228 38.5897C186.002 38.8911 185.705 39.1327 185.365 39.2935C185.024 39.4543 184.649 39.5295 184.272 39.5125C183.847 39.5352 183.423 39.4548 183.035 39.278C182.648 39.1013 182.309 38.8335 182.048 38.4975V42.0963H181.273V32.3609H181.993V33.3575C182.232 32.9938 182.563 32.6988 182.951 32.5014C183.339 32.304 183.772 32.2111 184.207 32.2317C184.588 32.2126 184.968 32.2866 185.314 32.4474C185.659 32.6082 185.961 32.8509 186.191 33.1545C186.718 33.9404 186.974 34.8768 186.92 35.8214L186.967 35.969ZM186.182 35.8306C186.225 35.0754 186.028 34.326 185.619 33.6897C185.446 33.4431 185.215 33.2426 184.946 33.1059C184.678 32.9692 184.38 32.9003 184.078 32.9054C183.64 32.8895 183.208 33.012 182.844 33.2555C182.479 33.499 182.201 33.8511 182.048 34.2619V37.6116C182.215 37.9938 182.496 38.3157 182.851 38.5344C183.225 38.7545 183.653 38.8663 184.087 38.8574C184.391 38.8682 184.692 38.8008 184.962 38.6619C185.232 38.5229 185.461 38.317 185.629 38.0638C186.035 37.3926 186.228 36.6139 186.182 35.8306Z" fill="#2B2B2B"/>
<path d="M193.158 39.4575C193.065 39.1362 193.012 38.8045 193.001 38.4701C192.731 38.8319 192.372 39.1179 191.959 39.3006C191.535 39.4915 191.076 39.589 190.611 39.5867C190.008 39.6152 189.416 39.4103 188.96 39.0146C188.757 38.8365 188.595 38.6162 188.487 38.3691C188.379 38.1219 188.326 37.854 188.332 37.5842C188.319 37.2606 188.392 36.9393 188.542 36.6526C188.693 36.3659 188.916 36.1239 189.19 35.9509C189.905 35.5071 190.741 35.2974 191.58 35.3511H193.001V34.5483C193.014 34.3262 192.979 34.104 192.897 33.8969C192.816 33.6898 192.691 33.5028 192.531 33.3486C192.15 33.038 191.665 32.883 191.174 32.9149C190.687 32.8948 190.207 33.0448 189.818 33.3394C189.653 33.4507 189.519 33.6006 189.425 33.7759C189.332 33.9512 189.283 34.1467 189.283 34.3453H188.498C188.506 34.0579 188.582 33.7765 188.718 33.5234C188.854 33.2702 189.047 33.0524 189.283 32.8872C189.834 32.4624 190.516 32.2436 191.211 32.269C191.877 32.2371 192.533 32.4468 193.057 32.8596C193.28 33.0642 193.456 33.3142 193.574 33.5928C193.691 33.8714 193.748 34.1721 193.74 34.4744V37.8149C193.713 38.3344 193.785 38.8542 193.952 39.3468V39.4575H193.158ZM190.704 38.8946C191.194 38.8995 191.676 38.7686 192.097 38.5163C192.504 38.2831 192.826 37.928 193.02 37.5012V35.9232H191.617C190.975 35.8951 190.337 36.0418 189.772 36.3477C189.468 36.5217 189.247 36.8089 189.155 37.1462C189.063 37.4836 189.109 37.8436 189.283 38.1472C189.351 38.2732 189.442 38.3858 189.55 38.4794C189.874 38.7466 190.284 38.8847 190.704 38.8669V38.8946Z" fill="#2B2B2B"/>
<path d="M204.813 35.969C204.869 36.8994 204.612 37.8216 204.084 38.5897C203.856 38.8894 203.559 39.1297 203.219 39.2903C202.878 39.4509 202.504 39.5272 202.128 39.5125C201.703 39.5352 201.279 39.4548 200.891 39.278C200.504 39.1013 200.165 38.8335 199.904 38.4975V42.0963H199.129V32.3609H199.849V33.3575C200.088 32.9938 200.419 32.6988 200.807 32.5014C201.195 32.304 201.628 32.2111 202.063 32.2317C202.444 32.2126 202.824 32.2866 203.17 32.4474C203.515 32.6082 203.817 32.8509 204.047 33.1545C204.598 33.9449 204.867 34.8968 204.813 35.8583V35.969ZM204.029 35.8306C204.067 35.0772 203.874 34.33 203.475 33.6897C203.301 33.4418 203.069 33.2405 202.798 33.1037C202.528 32.9669 202.228 32.8988 201.925 32.9054C201.488 32.8914 201.059 33.0148 200.696 33.2582C200.334 33.5016 200.056 33.8526 199.904 34.2619V37.6116C200.071 37.9938 200.352 38.3157 200.707 38.5344C201.081 38.7545 201.509 38.8663 201.943 38.8574C202.247 38.8682 202.548 38.8008 202.818 38.6619C203.087 38.5229 203.317 38.317 203.484 38.0638C203.878 37.3882 204.061 36.6107 204.01 35.8306H204.029Z" fill="#2B2B2B"/>
<path d="M211.688 32.3616V39.4578H210.904V36.5787H208.707L206.982 39.4578H206.114L207.895 36.5141C207.444 36.4097 207.045 36.148 206.769 35.7759C206.499 35.4071 206.356 34.9599 206.363 34.5024C206.353 34.2097 206.41 33.9185 206.53 33.6512C206.65 33.384 206.83 33.148 207.055 32.9614C207.586 32.5631 208.238 32.3609 208.901 32.3893L211.688 32.3616ZM207.148 34.484C207.142 34.6712 207.174 34.8577 207.242 35.0322C207.31 35.2067 207.413 35.3655 207.545 35.4991C207.691 35.6379 207.863 35.7462 208.052 35.8175C208.24 35.8888 208.441 35.9217 208.643 35.9143H210.904V32.9983H208.901C208.439 32.9701 207.983 33.1112 207.618 33.3951C207.459 33.5263 207.334 33.6935 207.252 33.8828C207.17 34.0721 207.134 34.2782 207.148 34.484Z" fill="#2B2B2B"/>
<path d="M213.635 38.7657L213.976 38.3228C214.587 37.3431 214.907 36.2104 214.899 35.0561L215.019 32.3616H219.199V38.7657H219.928V41.5341H219.153V39.4578H213.838V41.5341H213.118V38.7657H213.635ZM214.558 38.7657H218.47V33.0906H215.794L215.711 34.9362C215.733 36.3056 215.32 37.6467 214.53 38.7657H214.558Z" fill="#2B2B2B"/>
<path d="M221.036 35.7671C221.023 35.1295 221.159 34.4976 221.433 33.9216C221.675 33.3953 222.067 32.9515 222.559 32.6449C223.051 32.3383 223.622 32.1822 224.201 32.1959C224.632 32.1786 225.062 32.2582 225.458 32.4292C225.854 32.6001 226.206 32.8578 226.49 33.1833C227.099 33.9165 227.412 34.8516 227.366 35.8041V35.9702C227.373 36.6073 227.238 37.2379 226.969 37.8157C226.728 38.3364 226.34 38.7757 225.853 39.08C225.357 39.377 224.788 39.5303 224.21 39.5229C223.778 39.5371 223.348 39.456 222.951 39.2853C222.554 39.1147 222.2 38.8587 221.912 38.5355C221.304 37.8015 220.992 36.867 221.036 35.9148V35.7671ZM221.82 35.9794C221.791 36.7265 222.023 37.4606 222.475 38.0557C222.843 38.5108 223.375 38.8014 223.957 38.8637C224.538 38.926 225.121 38.7548 225.576 38.3879C225.696 38.2865 225.807 38.1754 225.908 38.0557C226.368 37.4397 226.6 36.6828 226.563 35.9148V35.7671C226.572 35.2565 226.471 34.75 226.268 34.2814C226.091 33.8625 225.8 33.5014 225.428 33.2387C224.968 32.934 224.41 32.8116 223.865 32.8952C223.319 32.9787 222.824 33.2624 222.475 33.6909C222.015 34.3068 221.784 35.0637 221.82 35.8317V35.9794Z" fill="#2B2B2B"/>
<path d="M232.875 38.3689L235.643 32.3616H236.566V39.4578H235.782V33.6258L233.013 39.4301H232.497L229.728 33.4966V39.4578H228.953V32.3616H229.977L232.875 38.3689Z" fill="#2B2B2B"/>
</g>
</g>
</g>
<path d="M18.5537 9.0395V5.4905L19.1757 6.485C20.1864 7.967 21.2166 9.4295 22.2468 10.9115L22.6356 11.4965C22.7482 11.6503 22.9109 11.7597 23.0954 11.806C23.2799 11.8523 23.4748 11.8325 23.6463 11.75L27.9809 10.229L32.782 8.591C33.2288 8.39072 33.7117 8.28453 34.201 8.279C34.6056 8.27899 35.0046 8.37426 35.3658 8.55715C35.7271 8.74004 36.0405 9.00544 36.2808 9.332C36.6937 9.84586 36.92 10.4855 36.9222 11.1455C36.9248 11.9245 36.649 12.6786 36.1447 13.271C35.6199 13.934 35.1145 14.636 34.6092 15.221C34.1038 15.806 33.4235 16.82 32.782 17.6L30.4689 20.7785C30.3742 20.8759 30.2955 20.9878 30.2357 21.11C30.1507 21.2765 30.1236 21.4668 30.1588 21.6506C30.1941 21.8343 30.2895 22.001 30.4301 22.124L31.4214 23.45L33.1125 25.634C33.5984 26.2385 34.0649 26.8625 34.5314 27.467L36.0476 29.417C36.4102 29.8365 36.6934 30.3189 36.8834 30.8405C36.8647 31.0679 36.9049 31.2962 37 31.5035V31.6985C36.9795 32.2105 36.8254 32.7081 36.5529 33.1415C36.259 33.6664 35.8004 34.079 35.2485 34.3153C34.6966 34.5516 34.0823 34.5982 33.5012 34.448C32.6654 34.2335 31.8879 33.902 31.091 33.629L26.0177 31.8545L24.074 31.1525C23.8773 31.0511 23.653 31.0172 23.4353 31.0559C23.2177 31.0947 23.0187 31.204 22.8688 31.367C22.6529 31.6124 22.4639 31.8805 22.3051 32.1665C21.6831 33.0635 21.0417 33.9605 20.3614 34.8575L17.3874 39.3035C17.135 39.8101 16.7609 40.2457 16.2989 40.571C15.9839 40.7612 15.6436 40.9057 15.2881 41H14.2774C13.9508 40.9113 13.6371 40.7802 13.3444 40.61C13.0223 40.407 12.7456 40.1393 12.5315 39.8239C12.3174 39.5085 12.1706 39.152 12.1004 38.777C12.0393 38.4884 12.0067 38.1945 12.0032 37.8995V17.6975C11.9719 16.7471 12.1721 15.8033 12.5863 14.948C12.9332 14.1959 13.5514 13.6036 14.3163 13.2905C14.4898 13.2046 14.6425 13.0814 14.7634 12.9298C14.8843 12.7782 14.9705 12.6017 15.016 12.413C15.1753 12.0015 15.2672 11.5669 15.2881 11.126V3.014C15.2683 2.80988 15.3095 2.60447 15.4064 2.4239C15.5033 2.24333 15.6516 2.09577 15.8324 2L16.4544 2C16.7071 2.1365 16.9598 2.234 17.0375 2.5655V11.1455C17.056 12.1252 16.7855 13.0885 16.26 13.9145C15.9609 14.3686 15.5443 14.7326 15.0549 14.9675C14.7504 15.1352 14.4852 15.3664 14.2773 15.6456C14.0694 15.9248 13.9236 16.2455 13.8498 16.586C13.746 17.0001 13.7002 17.4267 13.7137 17.8535V37.9385C13.7185 38.0854 13.7529 38.2298 13.8147 38.3631C13.8765 38.4963 13.9645 38.6157 14.0734 38.714C14.1823 38.8123 14.3099 38.8876 14.4485 38.9353C14.5871 38.983 14.7338 39.0021 14.8799 38.9915H15.1326C15.4023 38.8571 15.6207 38.638 15.7546 38.3675C15.949 38.0945 16.124 37.802 16.2989 37.529L17.3485 36.0275L20.6529 31.1525C21.0044 30.5049 21.504 29.9502 22.1108 29.534C22.7266 29.1736 23.4539 29.0555 24.1517 29.2025C24.9621 29.4344 25.76 29.7078 26.5425 30.0215L31.3242 31.679L33.9677 32.5955C34.1161 32.6448 34.276 32.647 34.4257 32.6016C34.5753 32.5562 34.7073 32.4655 34.8035 32.342C34.9134 32.2237 34.9908 32.0789 35.0282 31.9218C35.0657 31.7646 35.0619 31.6003 35.0174 31.445C34.8632 31.0958 34.6457 30.7784 34.3759 30.509C33.4235 29.2415 32.4321 27.9935 31.4797 26.726C30.5273 25.4585 29.983 24.776 29.1861 23.7425C28.8539 23.3882 28.6019 22.966 28.4476 22.5049C28.2933 22.0438 28.2402 21.5546 28.2919 21.071C28.3327 20.675 28.4659 20.2942 28.6807 19.9595C29.1861 19.2185 29.7498 18.5165 30.294 17.795C30.8383 17.0735 31.7713 15.845 32.5099 14.831L34.823 11.75C34.8848 11.6817 34.9321 11.6016 34.9622 11.5145C34.9923 11.4273 35.0044 11.335 34.9979 11.243C34.9981 10.991 34.9011 10.7488 34.7271 10.567C34.5532 10.3852 34.3159 10.2781 34.0649 10.268C33.9557 10.2478 33.8437 10.2478 33.7345 10.268L31.0132 11.243C29.0694 11.9645 26.9507 12.6665 24.9292 13.4075C24.2641 13.7018 23.5301 13.8031 22.8105 13.7C22.1538 13.627 21.5493 13.3064 21.1194 12.803C20.3614 11.7695 19.6616 10.697 18.923 9.644C18.8304 9.42526 18.7059 9.22153 18.5537 9.0395Z" fill="#2B2B2B"/>
<path d="M7.14374 2C7.32487 2.09607 7.47344 2.24409 7.57055 2.42522C7.66766 2.60635 7.70891 2.81241 7.68907 3.01716V11.0371C7.67742 11.6236 7.79723 12.2052 8.03964 12.7389C8.19354 13.0672 8.46463 13.3255 8.79921 13.4626C9.4053 13.7527 9.91322 14.2153 10.2599 14.7927C10.6691 15.4428 10.9224 16.1793 11 16.9444C11 17.3356 11 17.7464 11 18.1376V40.1435C11.0005 40.3568 10.9203 40.5623 10.7757 40.7184C10.6311 40.8746 10.4328 40.9697 10.221 40.9846C10.125 41.0045 10.0261 41.0051 9.92987 40.9863C9.83368 40.9675 9.74217 40.9298 9.66064 40.8752C9.57911 40.8206 9.50918 40.7503 9.45492 40.6683C9.40066 40.5864 9.36314 40.4944 9.34454 40.3978C9.32538 40.3141 9.32538 40.2272 9.34454 40.1435V17.6486C9.33971 16.9539 9.13696 16.2752 8.76025 15.6925C8.62371 15.4193 8.4148 15.1892 8.1565 15.0275C7.67166 14.7956 7.24491 14.4572 6.9078 14.0374C6.57069 13.6175 6.33183 13.127 6.20889 12.6019C6.09504 12.1539 6.02974 11.6948 6.01413 11.2327V3.0954C5.97872 2.88065 6.01023 2.66015 6.10436 2.46407C6.19849 2.268 6.35064 2.10591 6.53999 2L7.14374 2Z" fill="#2B2B2B"/>
<path d="M7 23.7284V25.8584C7 26.0177 7 26.0177 6.83551 25.9779L3.91123 24.9626C3.21671 24.7437 2.50392 24.5645 1.82768 24.3057C1.36218 24.1572 0.944207 23.8697 0.62116 23.4756C0.298113 23.0815 0.0829232 22.5967 0 22.0762L0 20.8221C0.0847885 20.4692 0.22051 20.1332 0.402089 19.8267C0.773397 19.2317 1.33296 18.8065 1.97389 18.6323C2.75979 18.3935 3.52742 18.1148 4.29504 17.856L6.98172 17V18.9907L5.26371 19.568L2.52219 20.4637C2.30438 20.5293 2.11819 20.6839 2.00242 20.8953C1.88666 21.1066 1.85025 21.3585 1.90078 21.5984C1.93882 21.7617 2.01663 21.9108 2.12601 22.0299C2.23538 22.1491 2.37226 22.2338 2.52219 22.2753C3.74674 22.6734 4.97128 23.0715 6.17755 23.4298C6.43754 23.5707 6.71438 23.6713 7 23.7284Z" fill="#2B2B2B"/>
<path d="M6.98209 24C6.71752 23.9647 6.45835 23.8856 6.21208 23.765C4.99438 23.3803 3.79459 22.953 2.63062 22.5256C2.4172 22.4553 2.23478 22.2894 2.12135 22.0625C2.00793 21.8356 1.97226 21.5652 2.02177 21.3077C2.05904 21.1324 2.13528 20.9724 2.24244 20.8445C2.34961 20.7166 2.48372 20.6257 2.63062 20.5812L5.31671 19.6197L7 19L6.98209 24Z" fill="#D61516"/>
<path d="M13.8885 7.02387V11.1652C13.8976 11.2653 13.8841 11.366 13.8489 11.4615C13.8137 11.557 13.7575 11.6454 13.6834 11.7217C13.6094 11.7979 13.519 11.8605 13.4174 11.9058C13.3159 11.9511 13.2052 11.9782 13.0917 11.9856C12.8511 12.0259 12.6023 11.9808 12.3993 11.8601C12.1962 11.7394 12.0553 11.5528 12.0071 11.341V2.98022C11.9758 2.74983 12.049 2.51785 12.2107 2.33487C12.3724 2.1519 12.6095 2.03278 12.8703 2.0035C13.1228 1.984 13.3747 2.04651 13.5786 2.17931C13.7118 2.24456 13.8217 2.34128 13.8959 2.4586C13.9702 2.57593 14.006 2.70921 13.9992 2.84348L13.8885 7.02387Z" fill="#2B2B2B"/>
<path d="M10.8885 7.02387V11.1652C10.8976 11.2653 10.8841 11.366 10.8489 11.4615C10.8137 11.557 10.7575 11.6454 10.6834 11.7217C10.6094 11.7979 10.519 11.8605 10.4174 11.9058C10.3159 11.9511 10.2052 11.9782 10.0917 11.9856C9.85114 12.0259 9.60232 11.9808 9.39926 11.8601C9.19619 11.7394 9.05527 11.5528 9.00709 11.341V2.98022C8.97578 2.74983 9.04895 2.51785 9.21066 2.33487C9.37238 2.1519 9.6095 2.03278 9.87033 2.0035C10.1228 1.984 10.3747 2.04651 10.5786 2.17931C10.7118 2.24456 10.8217 2.34128 10.8959 2.4586C10.9702 2.57593 11.006 2.70921 10.9992 2.84348L10.8885 7.02387Z" fill="#2B2B2B"/>
<path d="M18.3329 8C18.5156 8.17914 18.6681 8.38727 18.7845 8.61618C19.5306 9.68951 20.2375 10.7827 21.0032 11.8362C21.4196 12.3372 21.9962 12.6747 22.6328 12.7903C23.3834 12.9171 24.1542 12.8204 24.8515 12.512C26.8149 11.7567 28.9551 11.0411 30.9971 10.3057L33.7459 9.31186C33.9855 9.22913 34.2476 9.24533 34.4755 9.35696C34.7033 9.46858 34.8786 9.66662 34.9632 9.90816C34.9819 10.02 34.9819 10.1342 34.9632 10.2461C34.9697 10.3398 34.9575 10.4339 34.9271 10.5228C34.8967 10.6116 34.8489 10.6933 34.7865 10.7629L32.4304 13.8636C31.6843 14.8773 30.9185 15.8513 30.192 16.8849C29.4656 17.9184 29.0729 18.3358 28.5624 19.0912C28.3454 19.4324 28.2109 19.8205 28.1697 20.2241C28.1174 20.7171 28.1711 21.2157 28.327 21.6857C28.4829 22.1557 28.7373 22.5861 29.0729 22.9472C29.8779 23.9411 30.624 24.9349 31.3897 25.9883C32.1555 27.0418 33.3532 28.5524 34.3153 29.8444C34.5878 30.119 34.8075 30.4426 34.9632 30.7985C35.0082 30.9568 35.012 31.1242 34.9742 31.2845C34.9363 31.4447 34.8581 31.5923 34.7472 31.7128C34.65 31.8388 34.5166 31.9312 34.3655 31.9774C34.2144 32.0237 34.0528 32.0215 33.9029 31.9712L31.2327 31.037L26.4026 29.3475C25.6122 29.0277 24.8062 28.7491 23.9876 28.5127C23.2828 28.3628 22.5481 28.4832 21.926 28.8506C21.3131 29.2748 20.8085 29.8402 20.4534 30.5003L17.1156 35.4695L16.0553 37H15.8001C15.2896 37 15.1522 36.7615 15.0147 36.3441C14.9951 36.1325 14.9951 35.9196 15.0147 35.708V16.7258C15.0353 16.3078 15.1495 15.9001 15.3485 15.5332C15.4322 15.4157 15.5483 15.3258 15.6823 15.2748C16.2945 14.9023 16.8201 14.4005 17.2233 13.8037C17.6265 13.2068 17.8978 12.529 18.0188 11.8163C18.1627 11.2369 18.2482 10.6442 18.274 10.0473C18.3329 9.35161 18.274 8.77519 18.3329 8Z" fill="#D61516"/>
<defs>
<clipPath id="clip0_23_13238">
<rect width="237" height="42" fill="white" transform="translate(0 0.5)"/>
</clipPath>
<clipPath id="clip1_23_13238">
<rect width="237" height="42" fill="white" transform="translate(0 0.5)"/>
</clipPath>
<clipPath id="clip2_23_13238">
<rect width="237" height="41.6363" fill="white" transform="translate(0 0.681885)"/>
</clipPath>
</defs>
</svg>
