<svg width="20" height="20" viewBox="0 0 20 20" fill="none" xmlns="http://www.w3.org/2000/svg">
<mask id="mask0_23_20255" style="mask-type:alpha" maskUnits="userSpaceOnUse" x="0" y="0" width="20" height="20">
<rect width="20" height="20" fill="#D9D9D9"/>
</mask>
<g mask="url(#mask0_23_20255)">
<path d="M9.99999 13.3333C10.6667 13.3333 11.2604 13.1354 11.7812 12.7395C12.3021 12.3437 12.6805 11.8333 12.9167 11.2083H7.08332C7.31943 11.8333 7.69791 12.3437 8.21874 12.7395C8.73957 13.1354 9.33332 13.3333 9.99999 13.3333ZM7.91666 9.99996C8.26388 9.99996 8.55902 9.87843 8.80207 9.63538C9.04513 9.39232 9.16666 9.09718 9.16666 8.74996C9.16666 8.40274 9.04513 8.1076 8.80207 7.86454C8.55902 7.62149 8.26388 7.49996 7.91666 7.49996C7.56943 7.49996 7.2743 7.62149 7.03124 7.86454C6.78818 8.1076 6.66666 8.40274 6.66666 8.74996C6.66666 9.09718 6.78818 9.39232 7.03124 9.63538C7.2743 9.87843 7.56943 9.99996 7.91666 9.99996ZM12.0833 9.99996C12.4305 9.99996 12.7257 9.87843 12.9687 9.63538C13.2118 9.39232 13.3333 9.09718 13.3333 8.74996C13.3333 8.40274 13.2118 8.1076 12.9687 7.86454C12.7257 7.62149 12.4305 7.49996 12.0833 7.49996C11.7361 7.49996 11.441 7.62149 11.1979 7.86454C10.9549 8.1076 10.8333 8.40274 10.8333 8.74996C10.8333 9.09718 10.9549 9.39232 11.1979 9.63538C11.441 9.87843 11.7361 9.99996 12.0833 9.99996ZM6.35416 5.33329L8.68749 2.31246C8.85416 2.09024 9.05207 1.92704 9.28124 1.82288C9.51041 1.71871 9.74999 1.66663 9.99999 1.66663C10.25 1.66663 10.4896 1.71871 10.7187 1.82288C10.9479 1.92704 11.1458 2.09024 11.3125 2.31246L13.6458 5.33329L17.1875 6.52079C17.5486 6.6319 17.8333 6.83676 18.0417 7.13538C18.25 7.43399 18.3542 7.76385 18.3542 8.12496C18.3542 8.29163 18.3299 8.45829 18.2812 8.62496C18.2326 8.79163 18.1528 8.95135 18.0417 9.10413L15.75 12.3541L15.8333 15.7708C15.8472 16.2569 15.6875 16.6666 15.3542 17C15.0208 17.3333 14.6319 17.5 14.1875 17.5C14.1597 17.5 14.0069 17.4791 13.7292 17.4375L9.99999 16.3958L6.27082 17.4375C6.20138 17.4652 6.12499 17.4826 6.04166 17.4895C5.95832 17.4965 5.88193 17.5 5.81249 17.5C5.36805 17.5 4.97916 17.3333 4.64582 17C4.31249 16.6666 4.15277 16.2569 4.16666 15.7708L4.24999 12.3333L1.97916 9.10413C1.86805 8.95135 1.78818 8.79163 1.73957 8.62496C1.69096 8.45829 1.66666 8.29163 1.66666 8.12496C1.66666 7.77774 1.76735 7.45482 1.96874 7.15621C2.17013 6.8576 2.45138 6.64579 2.81249 6.52079L6.35416 5.33329Z" fill="#A72536"/>
</g>
</svg>
